<?xml version="1.0" encoding="UTF-8"?>
<svg id="Camada_1" xmlns="http://www.w3.org/2000/svg" version="1.1" viewBox="0 0 1080 1080">
  <!-- Generator: Adobe Illustrator 29.8.2, SVG Export Plug-In . SVG Version: 2.1.1 Build 3)  -->
  <defs>
    <style>
      .st0 {
        fill: #cfaf4b;
        opacity: .91;
      }

      .st0, .st1 {
        isolation: isolate;
      }

      .st2 {
        fill: #fff;
      }

      .st3 {
        fill: #f8f9fa;
      }

      .st1 {
        fill: #90661d;
        opacity: .92;
      }
    </style>
  </defs>
  <path id="Path_0" class="st2" d="M149.16,601.69c.4,3,86.8,90.6,191.9,194.7,105.2,104.1,192.8,189.2,194.8,189.2s89.6-86.4,194.7-191.9c153.9-154.7,189.8-192.6,184.6-194.8-3.5-1.5-29.8-2.3-58.5-1.8l-52.1.9c-206.8,209.7-268.1,270.5-269.6,270.5s-63.6-60.7-138-134.9l-135.3-135c-105.5-2.3-113.2-1.7-112.5,3.1h0Z"/>
  <path id="Path_01" data-name="Path_0" class="st3" d="M188.56,593.09c-6,.8-16.3,2.2-22.8,3.1-6.6,1-11.1,3.5-10.1,5.5,1.1,2.1,21.9,3.6,51.2,3.6h49.3c212.8,208.3,276.5,269.2,278.9,269.7,2.5.6,65.3-59.9,139.7-134.3l135.2-135.4c77.2,0,97.7-1.5,98.8-3.6,1-2-1.9-4.6-6.4-5.8s-38.8-3.2-76.3-4.6l-68-2.4c-47.5,45.1-97,93.6-140.7,136.9l-79.3,78.8-210.6-213.6c-99.1.6-132.9,1.4-138.9,2.1h0Z"/>
  <path id="Path_02" data-name="Path_0" class="st0" d="M338.16,368.59l-189.8,191,106.7,2.1c100.5-96.5,130.3-124.5,131.2-124.5s29.1,28,62.8,62.2l61.2,62.2,120.7-.4c-124.7-121.5-161.7-156.9-162.7-156.9-1-.1-6.4-4.7-12-10.2-5.5-5.5-10.1-11.6-10-13.6,0-2,19.6-23.4,43.6-47.5l43.6-43.9c209.9,206.8,270,268.1,269.1,269.6-.9,1.5,25.9,2.8,59.6,2.8h61.2c-298.9-297.5-387.9-383.9-390.5-383.9s-90.3,86-194.7,191h0Z"/>
  <path id="Path_03" data-name="Path_0" class="st1" d="M486.56,332.09c-25.9,25.4-41.6,43.6-41.1,47.5.5,3.5,6.6,11.3,13.6,17.4l12.8,10.9c48.2-45.3,63.8-58.5,65.8-58.5,2.1,0,52.2,47.7,111.5,106l107.9,106.1c36.8,0,47.6-1.3,47.6-2.8.1-1.5-59.9-62.4-133.4-135.2-73.5-72.9-135.6-132.6-138.2-132.6s-23.5,18.6-46.5,41.2h0ZM320.96,496.69c-33.7,32.6-61.3,60.5-61.2,62,.1,1.5,14.5,2.7,32.1,2.7l32-.1c69.4-73.5,89.5-96.9,89.5-99.5-.1-2.5-4.6-9.1-10.1-14.7-5.5-5.5-12.4-10-15.4-9.9-3.1.2-33.1,26.9-66.9,59.5Z"/>
</svg>