<svg version="1.2" xmlns="http://www.w3.org/2000/svg" viewBox="0 0 512 512" width="512" height="512">
	<style>
		.s0 { fill: #141414 } 
		.s1 { fill: #9a7839 } 
	</style>
	<g id="Background">
		<path id="Forma 1" fill-rule="evenodd" class="s0" d="m256 512c-141.57 0-256-114.43-256-256 0-141.57 114.43-256 256-256 141.57 0 256 114.43 256 256 0 141.57-114.43 256-256 256z"/>
		<path id="Forma 2" fill-rule="evenodd" class="s1" d="m256 426c-94.01 0-170-75.99-170-170 0-94.01 75.99-170 170-170 94.01 0 170 75.99 170 170 0 94.01-75.99 170-170 170z"/>
		<path id="Path 2" class="s0" d="m249.08 114.25c-2.44 1.24-6.43 4.5-8.87 7.25-2.44 2.75-6.17 7.93-8.28 11.5-2.11 3.57-5.7 11.22-7.98 17-2.28 5.78-5.69 16.13-7.57 23-1.87 6.88-3.52 14.3-3.65 16.5l-0.23 4c86.92 0.5 87.5 0.47 87.5-1.5 0-1.1-1.55-7.96-3.44-15.25-1.89-7.29-4.65-16.63-6.14-20.75-1.49-4.13-4.06-10.43-5.73-14-1.66-3.57-4.61-8.97-6.55-12-1.95-3.03-5.36-7.47-7.59-9.87-2.23-2.4-5.74-5.21-7.8-6.25-2.06-1.03-4.99-1.88-6.5-1.88-1.51 0-4.74 1.01-7.17 2.25zm55.86 9c1.07 1.79 3.57 7.07 5.57 11.75 1.99 4.68 5.32 13.68 7.4 20 2.08 6.32 5.09 17.71 6.69 25.29l2.9 13.79 58.5-0.08c-3.29-6.59-7.09-12.78-10.57-18-3.48-5.22-9.62-13.06-13.63-17.41-4.02-4.35-10.45-10.47-14.3-13.61-3.85-3.13-10.38-7.88-14.5-10.54-4.13-2.66-11.55-6.71-16.5-9.01-4.95-2.29-10.01-4.46-11.25-4.8l-2.25-0.63zm-107.44 1.28c-4.4 1.92-12.05 6.06-17 9.18-4.95 3.12-12.15 8.22-16 11.34-3.85 3.12-9.89 8.77-13.42 12.56-3.54 3.79-8.25 9.36-10.49 12.39-2.23 3.03-6.21 9.1-8.85 13.5-2.63 4.4-4.78 8.56-4.76 9.25 0.01 0.97 6.46 1.25 28.77 1.27l28.75 0.02c3.65-17.47 6.04-27.26 7.66-33.04 1.62-5.78 3.34-11.4 3.83-12.5 0.48-1.1 3.05-7.13 5.7-13.39 2.64-6.27 5.15-11.56 5.56-11.75 0.41-0.2 0.75-0.81 0.75-1.36 0-0.55-0.56-0.99-1.25-0.99-0.69 0.01-4.85 1.59-9.25 3.52zm-83.17 105.22c-1.34 7.12-1.82 14.33-1.78 26.75 0.03 10.24 0.57 19.38 1.37 23 0.73 3.3 1.49 7.46 1.7 9.25l0.38 3.25h64.5v-72h-64.34zm93.03-3c-0.43 3.71-0.78 16.88-0.78 29.25 0 12.38 0.32 25.54 0.71 29.25l0.71 6.75h96c1.1-10.46 1.42-23.63 1.42-36 0-12.38-0.32-25.54-0.71-29.25l-0.71-6.75h-95.86zm124.14 29.25v36c49.99 0 64.5-0.34 64.51-0.75 0-0.41 0.47-3.45 1.03-6.75 0.57-3.3 1.35-8.02 1.73-10.5 0.38-2.48 0.69-11.02 0.68-19-0.01-10.25-0.59-17.51-1.98-24.75l-1.97-10.25h-64zm-204.37 63.12c-0.08 0.76 1.7 4.53 3.95 8.38 2.25 3.85 6.16 9.93 8.68 13.5 2.52 3.58 9.68 11.56 15.91 17.75 6.23 6.19 11.78 11.25 12.33 11.25 0.55 0 1.56 0.58 2.25 1.3 0.69 0.71 3.28 2.62 5.77 4.25 2.48 1.62 5.41 3.51 6.5 4.19 1.09 0.69 4.57 2.6 7.73 4.25 3.16 1.66 7.89 3.85 10.5 4.88 2.61 1.03 5.64 2.27 6.72 2.75 1.75 0.78 1.67 0.39-0.7-3.62-1.46-2.47-4.64-9.45-7.07-15.5-2.43-6.05-5.6-15.05-7.05-20-1.45-4.95-3.58-13.27-4.74-18.5-1.15-5.22-2.25-10.17-2.43-11-0.18-0.82-0.36-2.17-0.41-3-0.06-1.29-4.16-1.55-28.94-1.88-23.98-0.31-28.89-0.14-29 1zm85.87-0.15c-1.31 0.78-1.21 2.12 0.86 10.71 1.29 5.4 3.71 14.1 5.38 19.32 1.66 5.23 4.68 13.33 6.7 18 2.03 4.68 5.35 11.09 7.37 14.25 2.03 3.16 5.6 7.83 7.94 10.37 2.34 2.54 5.94 5.46 8 6.5 2.06 1.03 5.1 1.88 6.75 1.88 1.65 0 4.46-0.75 6.25-1.67 1.79-0.92 4.98-3.28 7.09-5.25 2.12-1.97 5.8-6.5 8.19-10.08 2.4-3.57 6.12-10.55 8.28-15.5 2.16-4.95 5.29-13.27 6.95-18.5 1.67-5.22 4.09-13.88 5.38-19.22 1.3-5.35 1.99-10.08 1.53-10.5-0.46-0.43-19.81-0.88-43-0.99-23.42-0.12-42.84 0.18-43.67 0.68zm113.92 1.03c-0.04 0.83-0.22 2.18-0.4 3-0.18 0.83-1.28 5.78-2.43 11-1.15 5.23-3.29 13.55-4.74 18.5-1.45 4.95-4.62 13.95-7.05 20-2.43 6.05-5.51 12.91-6.86 15.25-1.34 2.34-2.33 4.25-2.19 4.26 0.14 0 4.08-1.58 8.75-3.53 4.68-1.94 11.81-5.43 15.85-7.75 4.04-2.33 11.02-6.98 15.5-10.35 4.48-3.36 11.93-10.11 16.55-15 4.62-4.88 10.31-11.58 12.64-14.88 2.34-3.3 5.18-7.57 6.33-9.5 1.14-1.92 2.71-4.62 3.48-6 0.77-1.37 1.68-3.51 2.02-4.75l0.63-2.25c-53.96 0.47-58.01 0.71-58.08 2z"/>
	</g>
</svg>